<?xml version="1.0" encoding="utf-8"?>
<!-- Generator: Adobe Illustrator 26.0.1, SVG Export Plug-In . SVG Version: 6.00 Build 0)  -->
<svg version="1.1" id="Camada_1" xmlns="http://www.w3.org/2000/svg" xmlns:xlink="http://www.w3.org/1999/xlink" x="0px" y="0px"
	 viewBox="0 0 193.4 212.8" style="enable-background:new 0 0 193.4 212.8;" xml:space="preserve">
<style type="text/css">
	.st0{fill:#175aef;}
	.st1{fill:#FA0F0C;}
	.st2{fill:#FFFFFF;}
	.st3{fill:#F1C667;}
</style>
<path class="st0" d="M155.4,202.2H38c-21,0-38-17-38-38V38C0,17,17,0,38,0h117.4c21,0,38,17,38,38v126.3
	C193.4,185.2,176.4,202.2,155.4,202.2z"/>
<path class="st1" d="M35.6,194.6h-0.6v0C35.3,194.6,35.4,194.6,35.6,194.6z"/>
<path class="st2" d="M155.8,194.4c-0.2,0.1-0.4,0-0.6-0.1v0.3H35.6c-0.2,0-0.4,0-0.6,0c-6.1-0.3-10.9-5.3-10.9-11.5
	c0-6.1,4.8-11.2,10.9-11.5v0h120.2v0c0.1,0,0.1-0.1,0.2-0.1c2.1-0.3,19.5-3,27.9-24.5c0.2-0.6,1.2-0.5,1.2,0.1
	C185.7,156,187,185.7,155.8,194.4z"/>
<polygon class="st1" points="39.8,178.4 77.8,178.4 77.8,212.8 58.8,202.2 39.8,212.1 "/>
<g>
	<rect x="94.9" y="42.8" class="st3" width="18" height="88.3"/>
	<rect x="75.5" y="65.8" class="st3" width="56.3" height="16.9"/>
</g>
</svg>
